<?xml version="1.0" standalone="no"?>
<!DOCTYPE svg PUBLIC "-//W3C//DTD SVG 20010904//EN"
 "http://www.w3.org/TR/2001/REC-SVG-20010904/DTD/svg10.dtd">
<svg version="1.0" xmlns="http://www.w3.org/2000/svg"
 width="500.000000pt" height="500.000000pt" viewBox="0 0 500.000000 500.000000"
 preserveAspectRatio="xMidYMid meet">
<metadata>
Created by potrace 1.15, written by Peter Selinger 2001-2017
</metadata>
<g transform="translate(0.000000,500.000000) scale(0.100000,-0.100000)"
fill="#000000" stroke="none">
<path d="M0 2500 l0 -2500 2500 0 2500 0 0 2500 0 2500 -2500 0 -2500 0 0
-2500z m1449 1742 c63 -130 161 -331 217 -447 123 -254 326 -675 424 -880 40
-82 131 -271 202 -420 72 -148 163 -337 203 -420 40 -82 130 -269 200 -415 70
-146 158 -328 195 -405 37 -77 126 -261 199 -409 72 -148 131 -273 131 -277 0
-5 -174 -9 -387 -9 l-388 0 -335 688 c-342 702 -512 1054 -592 1222 -52 109
-429 884 -488 1005 -139 282 -480 990 -480 997 0 4 177 8 393 8 l392 -1 114
-237z m3128 -1338 c3 -9 -19 -68 -52 -137 -32 -67 -79 -167 -105 -222 -27 -55
-137 -282 -245 -505 -108 -223 -226 -466 -262 -540 -36 -74 -105 -216 -153
-315 -49 -99 -123 -252 -165 -339 l-76 -159 -25 37 c-14 20 -38 65 -54 99 -16
34 -57 112 -90 172 -33 61 -87 162 -119 225 -33 64 -73 139 -90 168 l-31 53
83 167 c46 92 113 224 149 293 84 161 78 148 132 256 25 51 46 99 46 108 0 13
-49 15 -428 15 l-427 0 -53 103 c-28 56 -101 197 -161 312 -61 116 -110 213
-111 218 0 4 502 7 1115 7 1010 0 1116 -2 1122 -16z"/>
</g>
</svg>
