<svg id="svg" version="1.1" xmlns="http://www.w3.org/2000/svg" style="display: block;" viewBox="0 0 500 500"><path d="M0 0 C26.07 0 52.14 0 79 0 C105.12002297 54.10576187 105.12002297 54.10576187 110.8125 66.1875 C113.43161214 71.74439953 116.10823124 77.26513647 118.875 82.75 C121.87189275 88.69240601 124.76926327 94.67606114 127.625 100.6875 C134.30514293 114.74118346 141.17623423 128.70193051 148.03173828 142.6706543 C153.16907128 153.14772485 158.22874191 163.6548317 163.16891479 174.22625732 C165.150017 178.4544225 167.16992103 182.66415738 169.1875 186.875 C169.64036377 187.82133301 170.09322754 188.76766602 170.55981445 189.74267578 C174.81076389 198.61929813 179.08713173 207.48365064 183.36279297 216.34838867 C186.38059217 222.61233419 189.37020379 228.88776878 192.3125 235.1875 C194.67745492 240.24619478 197.10926397 245.26420926 199.625 250.25 C208.98497974 268.80311492 217.84006592 287.61909049 226.75830078 306.38720703 C235.1727757 324.12488663 235.1727757 324.12488663 243.87158203 341.72387695 C247.53946056 349.0143173 251.0374359 356.38649034 254.55151367 363.75195312 C257.85419389 370.66048618 261.2186963 377.53144772 264.765625 384.31835938 C266.19597541 387.10815921 267 388.81199315 267 392 C241.26 392 215.52 392 189 392 C183.39 380.45 177.78 368.9 172 357 C168.67931937 350.20267722 165.3584007 343.40560751 162.02905273 336.61254883 C159.62585338 331.70862266 157.22523137 326.80343458 154.82421875 321.8984375 C154.09850174 320.41600555 154.09850174 320.41600555 153.35812378 318.90362549 C148.664362 309.31531819 143.97185759 299.72640121 139.28677368 290.1338501 C138.44495118 288.41075434 137.60266436 286.68788533 136.75985718 284.965271 C132.28363957 275.81562456 127.86719474 266.64432632 123.58154297 257.40380859 C121.27543901 252.44059442 118.92426394 247.49942185 116.5625 242.5625 C116.0893335 241.5729834 115.61616699 240.5834668 115.12866211 239.56396484 C112.20721464 233.47163581 109.22983342 227.41221302 106.18161011 221.38250732 C103.22952474 215.51638418 100.39985649 209.59393528 97.5703125 203.66796875 C93.2496496 194.64279854 88.87979793 185.64353631 84.45703125 176.66796875 C83.63837334 175.00568237 83.63837334 175.00568237 82.80317688 173.30981445 C80.58046712 168.7985892 78.3564205 164.28803431 76.12817383 159.77954102 C70.19262066 147.7644641 64.34927152 135.73693766 58.91244507 123.48704529 C56.45397817 117.9588966 53.84394692 112.55866263 50.9375 107.25 C50.09903834 105.68424756 49.26181966 104.11782893 48.42578125 102.55078125 C48.02053223 101.79361816 47.6152832 101.03645508 47.19775391 100.25634766 C45.29531153 96.67249677 43.45029117 93.06114397 41.625 89.4375 C41.31554443 88.83131836 41.00608887 88.22513672 40.68725586 87.60058594 C39.02437801 84.28296609 37.57438511 80.94996558 36.24609375 77.484375 C33.72930949 71.08754835 30.59681638 65.00548547 27.48825073 58.88275146 C25.6911132 55.34192442 23.90786627 51.79412296 22.125 48.24609375 C21.77034164 47.54071472 21.41568329 46.83533569 21.05027771 46.10858154 C17.47380928 38.97976838 14.02762321 31.79112845 10.61572266 24.58227539 C7.57872619 18.17220694 4.420529 11.83801822 1.14453125 5.546875 C0 3 0 3 0 0 Z " transform="translate(55,52)" style="fill: rgb(253, 253, 253); visibility: visible; opacity: 1;" data-index="1"></path><path d="M0 0 C73.59 0 147.18 0 223 0 C224.12471655 5.62358277 224.12471655 5.62358277 222.078125 9.7109375 C221.63509033 10.61448975 221.19205566 11.51804199 220.7355957 12.44897461 C220.24534912 13.41456299 219.75510254 14.38015137 219.25 15.375 C218.22743416 17.44640216 217.20531134 19.51802306 216.18359375 21.58984375 C215.65491699 22.65058105 215.12624023 23.71131836 214.58154297 24.80419922 C212.09910266 29.8204301 209.71096648 34.88074727 207.3125 39.9375 C204.26680199 46.32195653 201.18636366 52.68455195 198 59 C194.98160325 64.98341105 192.06687398 71.01101658 189.1875 77.0625 C183.95600799 88.05025228 178.6412032 98.99663954 173.3125 109.9375 C172.91098724 110.7626712 172.50947449 111.58784241 172.09579468 112.4380188 C167.65665924 121.55952532 163.19556885 130.66832745 158.62861633 139.72666931 C156.18035729 144.59323293 153.88271754 149.51910543 151.6171875 154.47265625 C146.42754274 165.79209881 141.08817296 176.97567293 135.16699219 187.93212891 C132.28474842 193.32083664 129.88292054 198.83468545 127.55078125 204.484375 C124.74338738 210.84874398 121.35878707 216.91326404 118 223 C114.4766753 218.93584893 112.11140224 214.69209695 109.6875 209.9375 C108.80590279 208.23504721 107.92300687 206.53326653 107.0390625 204.83203125 C106.55727539 203.90342285 106.07548828 202.97481445 105.57910156 202.01806641 C102.93602218 196.96646663 100.23128298 191.94794108 97.53097534 186.92678833 C92.53517872 177.63241844 87.55426524 168.32983436 82.625 159 C82.16681885 158.14035645 81.7086377 157.28071289 81.23657227 156.39501953 C80.82076904 155.60466309 80.40496582 154.81430664 79.9765625 154 C79.43636475 152.9790625 79.43636475 152.9790625 78.88525391 151.9375 C76.64192046 147.02765603 76.64192046 147.02765603 77.67749023 144.05566406 C78.23738647 143.04584473 78.23738647 143.04584473 78.80859375 142.015625 C79.22157715 141.25411133 79.63456055 140.49259766 80.06005859 139.70800781 C80.51461426 138.89686523 80.96916992 138.08572266 81.4375 137.25 C82.37772704 135.52160773 83.31651076 133.79242959 84.25390625 132.0625 C84.72328613 131.20269531 85.19266602 130.34289062 85.67626953 129.45703125 C87.48883121 126.09266002 89.19021013 122.67963876 90.875 119.25 C94.15527881 112.61641521 97.56542912 106.05487078 101 99.5 C104.55499721 92.70477965 108.10637333 85.90867062 111.5625 79.0625 C111.87251953 78.45535156 112.18253906 77.84820312 112.50195312 77.22265625 C114.68653622 72.86322094 116.26345863 68.630777 118 64 C89.62 64 61.24 64 32 64 C28.7 57.4 25.4 50.8 22 44 C19.98246517 40.23077022 17.95742996 36.48147944 15.875 32.75 C12.2744696 26.21583318 8.7267687 19.66575325 5.375 13 C5.05644043 12.3719043 4.73788086 11.74380859 4.40966797 11.09667969 C2.57924738 7.4116346 1.31792816 3.95378448 0 0 Z " transform="translate(234,208)" style="fill: rgb(254, 254, 254); visibility: visible; opacity: 1;" data-index="2"></path></svg>